<svg width="22" height="22" viewBox="0 0 22 22" fill="none" xmlns="http://www.w3.org/2000/svg">
<path d="M19.5073 16.8886C19.1884 17.6252 18.811 18.3033 18.3737 18.9266C17.7777 19.7765 17.2897 20.3647 16.9136 20.6913C16.3305 21.2275 15.7059 21.5021 15.0369 21.5177C14.5567 21.5177 13.9776 21.3811 13.3035 21.1039C12.6271 20.828 12.0056 20.6913 11.4373 20.6913C10.8412 20.6913 10.202 20.828 9.51823 21.1039C8.83343 21.3811 8.28177 21.5255 7.85998 21.5399C7.21852 21.5672 6.57914 21.2848 5.94094 20.6913C5.5336 20.3361 5.0241 19.727 4.41374 18.8642C3.75888 17.9428 3.22049 16.8743 2.7987 15.6562C2.34699 14.3405 2.12054 13.0664 2.12054 11.833C2.12054 10.42 2.42585 9.20141 3.03738 8.1802C3.51799 7.35993 4.15737 6.71287 4.9576 6.23786C5.75783 5.76285 6.62248 5.52079 7.55363 5.5053C8.06313 5.5053 8.73127 5.6629 9.56156 5.97264C10.3895 6.28341 10.9211 6.44101 11.1542 6.44101C11.3285 6.44101 11.9191 6.25673 12.9202 5.88935C13.867 5.54864 14.666 5.40757 15.3207 5.46314C17.0945 5.60629 18.4271 6.30553 19.3134 7.56529C17.7269 8.5265 16.9422 9.8728 16.9578 11.5999C16.9721 12.9451 17.4602 14.0646 18.4193 14.9535C18.854 15.366 19.3394 15.6849 19.8795 15.9113C19.7623 16.251 19.6387 16.5763 19.5073 16.8886V16.8886ZM15.4391 0.880128C15.4391 1.93453 15.0539 2.91903 14.286 3.83027C13.3594 4.91356 12.2387 5.53953 11.0233 5.44075C11.0078 5.31426 10.9988 5.18112 10.9988 5.04122C10.9988 4.02899 11.4395 2.94571 12.222 2.05998C12.6127 1.61151 13.1096 1.23862 13.7121 0.941163C14.3134 0.64814 14.8821 0.486092 15.417 0.458342C15.4326 0.599299 15.4391 0.740266 15.4391 0.880114V0.880128Z" fill="#111111"/>
</svg>
