<svg width="23" height="22" viewBox="0 0 23 22" fill="none" xmlns="http://www.w3.org/2000/svg">
<circle cx="11.6318" cy="11" r="11" fill="#3875EA"/>
<path d="M11.0674 21.9916C11.9844 21.9916 12.7278 21.2482 12.7278 20.3312V15.8177C12.7278 15 13.3907 14.3371 14.2084 14.3371V14.3371C14.9474 14.3371 15.5744 13.7835 15.6762 13.0516V13.0516C15.8 12.1605 15.1095 11.354 14.2098 11.354V11.354C13.3913 11.354 12.7278 10.6905 12.7278 9.87196V9.44939C12.7278 8.58574 12.9864 7.99711 14.3215 7.99711L14.609 7.99699C15.3908 7.99665 16.0244 7.36277 16.0244 6.58096V6.58096C16.0244 5.86573 15.4898 5.27074 14.7753 5.2389C14.4079 5.22252 13.9873 5.21094 13.5431 5.21094C11.0879 5.21094 9.4071 6.60107 9.4071 9.1541V9.96566C9.4071 10.7325 8.78548 11.3541 8.01868 11.3541V11.3541C7.25187 11.3541 6.63026 11.9757 6.63026 12.7425V12.9488C6.63026 13.7156 7.25186 14.3372 8.01864 14.3372V14.3372C8.78542 14.3372 9.40701 14.9588 9.40701 15.7255V20.3312C9.40701 21.2482 10.1504 21.9916 11.0674 21.9916V21.9916Z" fill="white"/>
</svg>
