<svg width="20" height="21" viewBox="0 0 20 21" fill="none" xmlns="http://www.w3.org/2000/svg">
<path d="M12.1083 8.39166L7.89166 12.6083C7.35 12.0667 7.01666 11.325 7.01666 10.5C7.01666 8.85 8.35 7.51666 10 7.51666C10.825 7.51666 11.5667 7.85 12.1083 8.39166Z" stroke="#111111" stroke-width="1.5" stroke-linecap="round" stroke-linejoin="round"/>
<path d="M14.85 5.30834C13.3917 4.20834 11.725 3.60834 10 3.60834C7.05834 3.60834 4.31667 5.34167 2.40834 8.34167C1.65834 9.51667 1.65834 11.4917 2.40834 12.6667C3.06667 13.7 3.83334 14.5917 4.66667 15.3083" stroke="#111111" stroke-width="1.5" stroke-linecap="round" stroke-linejoin="round"/>
<path d="M7.01666 16.775C7.96666 17.175 8.975 17.3917 10 17.3917C12.9417 17.3917 15.6833 15.6583 17.5917 12.6583C18.3417 11.4833 18.3417 9.50834 17.5917 8.33334C17.3167 7.9 17.0167 7.49167 16.7083 7.10834" stroke="#111111" stroke-width="1.5" stroke-linecap="round" stroke-linejoin="round"/>
<path d="M12.925 11.0833C12.7083 12.2583 11.75 13.2167 10.575 13.4333" stroke="#111111" stroke-width="1.5" stroke-linecap="round" stroke-linejoin="round"/>
<path d="M7.89167 12.6083L1.66667 18.8333" stroke="#111111" stroke-width="1.5" stroke-linecap="round" stroke-linejoin="round"/>
<path d="M18.3333 2.16667L12.1083 8.39167" stroke="#111111" stroke-width="1.5" stroke-linecap="round" stroke-linejoin="round"/>
</svg>
